<?xml version="1.0" encoding="UTF-8"?>
<svg xmlns="http://www.w3.org/2000/svg" viewBox="0 0 2989.27 2998.08">
  <defs>
    <style>
      .cls-1 {
        fill: #fff;
      }

      .cls-2 {
        fill: none;
        stroke-linecap: round;
      }

      .cls-2, .cls-3 {
        stroke: #000;
        stroke-miterlimit: 10;
        stroke-width: 45px;
      }

      .cls-3 {
        fill: #cc6133;
      }

      .cls-4 {
        fill: #3b9400;
      }
    </style>
  </defs>
  <g id="Layer_9" data-name="Layer 9">
    <path class="cls-4" d="m2914.51,1042.92c-2.01-1.89-4.38-3.37-6.94-4.39-4.28-115.78-21.35-244.71-61.13-329.85-58.54-125.27-83.12-146.34-83.12-146.34,0,0,22.24-133.46-33.95-196.68-37.99-42.74-76.1,21.07-76.1,21.07,0,0-214.24-233.76-593.56-310.24s-1118.05,18.73-1118.05,18.73c0,0-98.34-63.22-165.07-24.59-66.73,38.63-56.2,84.29-56.2,84.29,0,0-653.27,252.88-674.34,698.93-21.07,446.05,140.49,856.98,179.12,937.76,38.63,80.78-101.85,407.41,77.27,716.49,179.12,309.07,453.07,386.34,688.39,424.98,235.32,38.63,530.34,49.17,853.46,38.63,323.12-10.54,646.24-49.17,779.71-144s168.59-214.24,168.59-305.56-17.56-207.22,17.56-259.9c35.12-52.68,57.37-66.73,58.54-113.56,1.59-63.59-43.32-63.22-43.32-63.22l-24.9-209.4s50.34-11.71,59.71-50.34-14.05-77.27-31.61-103.02c-17.56-25.76-34.81-63.38-33.63-92.65,1.17-29.27,103.02-309.07,111.22-442.54,1.84-30.03,2.79-64.45,2.5-101.18,5.62-1.63,11.11-5.84,13.68-11,5.86-11.75,1.27-23.85-7.81-32.41Z"/>
  </g>
  <g id="Layer_3" data-name="Layer 3">
    <path class="cls-3" d="m2571.48,2388.68s-308.18,57.95-541.96,47.41-607.5-87.8-761.58-165.07c-154.09-77.27-309.95-24.59-348.91,52.68s-41.27,215.23,106.27,275.71c184.2,75.51,380.79,149.27,747.42,166.83,330.89,15.85,593.33,5.27,772.21-63.22,178.88-68.49,207.22-119.44,208.99-201.96s-49.59-133.41-182.43-112.38Z"/>
    <path class="cls-2" d="m1118.44,2416.78c646.24,245.85,1107.51,192,1544.2,100.1"/>
  </g>
  <g id="Layer_6" data-name="Layer 6">
    <path class="cls-1" d="m2156.88,1911.02c66.68-77.35,208.11-114.11,357.37-111.51,201.95,3.51,314.03,94.04,316.98,187.9,2.95,93.95-33.37,136.1-103.61,151.02-142.29,30.24-560.27,67.64-594.44-28.98-21.84-61.75-9.41-160.02,23.71-198.44Z"/>
  </g>
  <g id="Layer_4" data-name="Layer 4">
    <path class="cls-1" d="m2028.12,1845.03c-75.28-35.7-193.73-67.89-352.41-51.08-248.99,26.36-415.48,92.96-460.45,112.61-9.11,3.98-18.98,5.9-28.92,5.63-34.13-.91-91.7-11.76-142.63,12.24-35.52,16.74-57.37,59.71-10.54,85.46s62.05,3.51,113.56,26.93,242.14,132.93,455.21,137.61,429.94-16.01,491.71-70.24c72-63.22,53.85-202.54-65.54-259.16Z"/>
  </g>
  <g id="Layer_5" data-name="Layer 5">
    <path class="cls-2" d="m2095.17,2100.97s153.02,132.3,203.95,231.52"/>
  </g>
  <g id="Layer_7" data-name="Layer 7">
    <path d="m1659.46,1783.71c-104.5,0-189.22,69.97-189.22,156.29s84.72,156.29,189.22,156.29,189.22-69.97,189.22-156.29-84.72-156.29-189.22-156.29Zm-26.67,154.65c-11.06,11.06-27.49,17.87-43.13,17.87-16.53,0-31.2-6.91-43.13-17.87-11.98-11-17.16-27.36-17.87-43.13-.68-15.2,7.29-32.55,17.87-43.13,11.06-11.06,27.49-17.87,43.13-17.87,16.53,0,31.2,6.91,43.13,17.87,11.98,11,17.16,27.36,17.87,43.13.68,15.2-7.29,32.55-17.87,43.13Z"/>
    <path d="m2534.15,1782.93c-95.53,0-172.98,70.32-172.98,157.07s77.44,157.07,172.98,157.07,172.98-70.32,172.98-157.07-77.44-157.07-172.98-157.07Zm.11,180.79c-11.06,11.06-27.49,17.87-43.13,17.87-16.53,0-31.2-6.91-43.13-17.87-11.98-11-17.16-27.36-17.87-43.13-.68-15.2,7.29-32.55,17.87-43.13,11.06-11.06,27.49-17.87,43.13-17.87,16.53,0,31.2,6.91,43.13,17.87,11.98,11,17.16,27.36,17.87,43.13.68,15.2-7.29,32.55-17.87,43.13Z"/>
  </g>
  <g id="Layer_11" data-name="Layer 11">
    <g>
      <path d="m1893.87,355.09c-49.38-10.77-147.5-23.08-239.48-25.75-50.97-1.48-94.26.1-128.67,4.69-44.54,5.94-73.86,17-89.63,33.79-24.35,25.93-29.83,54.1-16.76,86.11,10.31,25.23,31.25,50.91,57.76,83.41,16.16,19.81,34.48,42.27,53.06,68.02,72.09,99.94,73.88,301.02,73.89,303.04.06,12.39,10.12,22.4,22.5,22.4h.1c12.43-.05,22.46-10.17,22.41-22.59-.04-8.83-1.83-217.48-82.4-329.17-19.36-26.84-38.12-49.84-54.68-70.14-55.24-67.72-65.84-86.02-43.07-110.27,13.1-13.95,68.36-27.67,184.19-24.3,89.23,2.59,183.85,14.41,231.2,24.74,12.14,2.65,24.13-5.05,26.78-17.19,2.65-12.14-5.04-24.13-17.19-26.78Z"/>
      <path d="m415.47,786.83c26.59,18.14,51.86,20.52,63.29,20.52,1.69,0,3.08-.05,4.13-.11,31.27-1.84,76.13-18.41,112.24-86.89,32.92-62.44,132.22-205.79,133.22-207.23,7.08-10.21,4.54-24.23-5.67-31.31-10.21-7.08-24.23-4.55-31.31,5.67-4.14,5.97-101.85,147.04-136.05,211.89-20.84,39.53-46.8,61.3-75.08,62.96-1.96.12-19.76.74-39.41-12.66-22.61-15.42-38.98-42.86-48.66-81.55-3.01-12.06-15.23-19.38-27.29-16.37-12.06,3.01-19.38,15.23-16.37,27.29,12.43,49.71,34.96,85.99,66.95,107.81Z"/>
      <path d="m891.83,526.49l-.81.8c-18.38,18-83.57,82.57-150.74,158-95.8,107.58-153.78,189.83-172.32,244.45-3.06,9.01-6.05,17.65-8.94,26.01-20,57.82-34.44,99.6-29.84,139.73,2.56,22.27,10.96,42.28,25.68,61.19,14.19,18.23,34.84,36.02,63.12,54.38,70.9,46.05,101.97,76.54,114.49,91.15-8.27,11.28-16.8,23.41-25.39,36.27-4.46,6.68-8.77,13.34-12.97,20-11.05-25.6-29.63-49.14-56.19-71.32-29.4-24.55-69.05-47.83-124.78-73.29-56.07-25.61-59.81-63.04-62.92-145.27-.99-26.27-2.12-56.04-6.04-88.67-6.76-56.12-34.43-113.95-80.03-167.21-33.97-39.68-65.9-63.04-67.24-64.01-10.05-7.29-24.09-5.07-31.4,4.97-7.31,10.04-5.09,24.11,4.94,31.43,1.15.84,115.22,85.3,129.05,200.21,3.71,30.79,4.79,59.58,5.75,84.99,1.54,40.62,2.86,75.7,13.78,106.34,12.7,35.63,36.66,60.47,75.4,78.16,106.16,48.49,155.56,91.55,165.17,143.98.73,3.96,2.46,7.48,4.87,10.36-11.03,20.51-20.76,40.79-29.09,60.7-22.58,53.99-35.03,105.61-37.01,153.41-.51,12.42,9.13,22.9,21.55,23.41.32.01.63.02.95.02,12,0,21.96-9.47,22.46-21.57,4.01-96.74,56.97-195.31,100.7-260.96,48.04-72.13,95.86-121.5,96.63-122.3,8.68-8.89,8.51-23.14-.38-31.82-8.89-8.68-23.14-8.51-31.82.38-1.29,1.32-21.06,21.68-48.1,55.39-18.62-19.96-53.42-50.62-117.89-92.49-56.25-36.54-66.25-62.44-68.6-82.97-3.44-29.97,9.6-67.69,27.66-119.89,2.91-8.42,5.92-17.12,9.02-26.25,16.36-48.2,72.83-127.38,163.32-228.99,66.22-74.36,130.49-138.03,148.61-155.77.62-.61,1-.98,1.11-1.1,8.79-8.79,8.81-23.05.02-31.84-8.79-8.79-23.01-8.81-31.8-.02Z"/>
      <path d="m506.38,1768.05c-2.72,2.81-67,69.76-95.23,150.79-4.09,11.73,2.11,24.56,13.84,28.65,2.45.85,4.95,1.26,7.4,1.26,9.31,0,18.01-5.82,21.25-15.1,24.9-71.46,84.47-133.68,85.07-134.3,8.63-8.93,8.4-23.16-.52-31.8-8.93-8.65-23.17-8.42-31.82.51Z"/>
      <path d="m1768.71,1028.3c-43.67-6.76-76.8,10.77-97.27,27.16-13.61,10.9-13.02,31.79,1.19,41.91h0c6.36,4.52,15.04,4.01,20.75-1.31,12.26-11.41,36.39-28.26,68.44-23.29,12.29,1.9,23.78-6.51,25.68-18.79,1.9-12.28-6.51-23.78-18.79-25.68Z"/>
    </g>
    <path d="m2964.69,1058.75c-1.23-15.95-5.8-31.17-17.08-42.98-5.49-5.75-12.13-10.1-19.25-13.58l-.03-.04c-1.18-20.17-2.72-40.06-4.63-59.34-10.14-102.6-29.28-184.58-56.88-243.65-41.76-89.36-67.16-127.88-79.79-143.87l-.03-.1c1.65-13.72,3.93-39.06,2.89-68.28-2.13-60.14-16.84-105.96-43.72-136.2-18.14-20.4-37.09-23.25-49.8-22.06-18.58,1.75-34.03,13.11-44.93,24.21h-.15c-24.05-23.05-71.15-64.87-140-111.24-59.71-40.21-123.52-75.52-189.68-104.96-82.71-36.8-169.33-64.47-257.47-82.24-87.87-17.72-201.87-27.74-338.83-29.78-109.04-1.63-232.94,1.76-368.26,10.06-203.57,12.49-372.77,32.57-410.46,37.21h-.06c-25.89-14.89-114.19-59.58-181.23-20.76-32.45,18.79-53.67,41.88-63.08,68.65-2.61,7.43-3.94,14.2-4.54,19.99l-.06.08c-44.12,18.41-180.02,78.87-319.62,178.95-98.25,70.44-177.57,145.87-235.77,224.22-73.72,99.24-113.65,203.45-118.67,309.74-4.92,104.17-.27,214.25,13.81,327.19,1.37,10.99,2.84,22.02,4.39,33.08v.03c-9.38,19.15-12.97,40.51-7.82,61.62,4.17,17.1,13.91,32.38,25.47,45.62v.02c9.1,48.13,19.77,96.53,31.98,144.86,41.78,165.38,90.98,289.08,113.47,336.1,9.59,20.05,3.42,72.26-3.71,132.71-8.64,73.18-19.4,164.26-12.61,265.01,8.08,119.87,38.96,224.65,94.42,320.34,43.56,75.17,95.4,141.27,154.09,196.47,52.54,49.42,112.46,91.85,178.09,126.1,129.46,67.56,266.82,96.06,372.03,113.33,173.46,28.48,384.2,42.8,628.61,42.8,73.4,0,149.86-1.29,229.23-3.88,180.34-5.88,336.43-19.57,463.92-40.68,153-25.34,263.39-61.5,328.09-107.47,64-45.48,111.64-100.22,141.6-162.71,24.19-50.46,36.46-104.7,36.46-161.19,0-23.17-1.12-48.1-2.19-72.21-2.97-66.44-6.34-141.74,15.98-175.21,8.77-13.16,16.8-23.93,23.88-33.44,21.7-29.14,37.38-50.19,38.43-92.04.72-28.94-6.66-51.49-21.94-67.03-7.62-7.75-15.97-12.39-23.35-15.16l-.07-.09-.4-3.36v-.04c6.48-21.8,9.21-47.27,8.28-76.86-.87-27.81-9.61-54.72-25.97-79.99-.38-.58-.77-1.15-1.16-1.73l-.02-.05-1.61-13.56.06-.11c19.87-8.61,48.87-26.61,57.03-60.25,11.07-45.66-12.83-88.65-34.89-121-15.44-22.64-30.6-55.8-29.75-78.93h0c.82-8.61,13.53-50.06,25.84-90.15,31.74-103.42,79.69-259.72,85.36-352.06,1.24-20.2,2.03-41.27,2.38-62.79l.02-.04c9.49-6.03,17.8-13.64,24.15-23.13,8.64-12.9,10.7-28.99,9.53-44.18Zm-181.61-425.51l.2-.04c11.28,20.36,25.45,47.93,42.78,85.01,34.11,73,50.29,177.05,56.66,274.13,0,.04-.03.06-.06.06-4.18-.56-8.2-1.09-12.04-1.59-83.81-11.06-87.08-11.49-131.99-46.91-31.84-25.11-35.66-49.88,6.41-138.97,22.91-48.52,33.32-118.04,38.05-171.68Zm100.61,552.89c-5.34,87.01-52.36,240.23-83.47,341.62-6.43,20.97-11.65,38.01-15.75,51.86l-.18.04c-45.54-54.73-98.43-100.65-157.79-136.96l-.05-.07c-12.44-65.1-36.28-123.19-71.01-173.11v-.12c10.96-14.68,29.84-39.7,50.14-65.44,58.62-74.34,74.82-85.92,77.47-87.49,26.29-15.53,43.37-15.94,67.69-1.64,33.74,19.85,83.53,22.65,134.89,20.94.06,0,.12.05.11.11-.42,18.4-1.14,35.32-2.06,50.27Zm17.07-97.63c-3.46,1.27-7.16,1.96-11.22,2.25-1.37.1-2.73.07-4.06-.03h0c-41.96,1.41-87.31-.22-111.92-14.7-38.3-22.53-73.27-22.01-113.39,1.68-6.33,3.74-23.13,13.66-90,98.46-16.56,21-32.19,41.53-43.46,56.51h-.16c-14.53-16.48-30.46-31.87-47.7-46.12v-.15c13.69-12.8,32.27-31.67,50.96-55.3,21.15-26.74,38.1-54.12,50.39-81.38,15.7-34.83,23.8-69.6,24.07-103.32.62-75.85-37.5-145.37-113.32-206.63-125.24-101.19-171.9-201.41-188.99-267.68-11.43-44.33-11.5-79.98-9.91-100.67.84-10.95-5.88-21.33-16.43-24.36-13.62-3.92-27.22,5.63-28.38,19.59-2.01,24.2-1.99,64.06,10.36,113.55,11.76,47.13,32.33,93.69,61.14,138.37,35.64,55.27,84.06,107.82,143.94,156.2,64.54,52.15,97.04,109.7,96.6,171.08-.71,98.59-84.93,184.02-117.29,213.22h-.12c-11.64-7.75-23.76-15.07-36.35-21.93-84.92-46.27-167.33-58.94-198.82-62.24-.35-.04-.64-.07-.86-.09-13.59-2.03-26.63,8.66-25.8,24.01.51,9.42,7.23,17.38,16.32,19.89,2.09.58,3.26.7,5.65.95,51.93,5.44,301.52,44.52,371.4,293.73.03.09-.07.17-.15.13-50.23-24.48-104.29-42.77-161.3-54.53-124.6-25.71-219.45-11.46-223.43-10.84-12.28,1.91-20.68,13.42-18.77,25.7,1.91,12.28,13.41,20.68,25.7,18.77.89-.14,90.69-13.64,207.4,10.44,69.02,14.24,132.09,37.96,188.91,70.96h.01c1.83,1.52,3.9,2.73,6.12,3.61h.01c67.28,40.19,125.64,93.57,174.56,159.84l.02.06c1.6,33.77,19.87,72.04,37.47,97.86,16.81,24.66,35.23,56.61,28.33,85.05-5.76,23.76-41.64,33.39-43,33.74l-13.03,2.9-.09-.02c-7.06-5.69-14.58-11.15-22.58-16.34-61.56-39.95-146.27-61.97-244.97-63.69-78.26-1.35-153.1,7.87-216.45,26.71-38.74,11.52-72.34,26.2-100.56,43.89l-.16-.08c-9.36-72.99-43.77-140.58-102.52-201.19-50.51-52.12-119.08-99.15-203.82-139.78-22.23-10.66-44.34-20.3-65.86-28.99l-.07-.1c-.23-19.88-3.27-39.04-8.43-57.42l.05-.12c17.59-9.22,48.04-24.26,82.92-37.59,69.38-26.52,124.64-34.56,159.82-23.25,11.83,3.8,24.5-2.71,28.31-14.54s-2.71-24.5-14.54-28.31c-45.79-14.72-109.8-6.55-190.25,24.29-33.9,12.99-63.35,27.22-82.33,37.01l-.14-.05c-38.46-80.33-112.8-141.92-155.38-177.19-10.29-8.53-19.19-15.89-23.94-20.59-35.08-34.69-83.1-62.46-142.7-82.55-46.64-15.72-100.58-26.84-160.33-33.06-101.06-10.52-183.13-3.49-186.57-3.19-12.38,1.09-21.53,12.01-20.43,24.39s12.02,21.53,24.39,20.43c3.18-.28,319.92-26.59,454,105.98,6.16,6.09,15.3,13.66,26.87,23.25,50.45,41.79,150.11,124.35,162.42,224.87,0,.04-.04.08-.08.06-95.55-34.32-170.24-48.7-174.48-49.5-12.21-2.31-23.97,5.72-26.28,17.92-2.31,12.21,5.71,23.98,17.92,26.29,1.08.21,86.79,16.75,190.43,56.15,10.34,4.09,62.58,25.51,86.01,36.77,179.74,86.39,277.62,196,291.6,324.65,2.93,26.93-19.03,60.96-43.35,19.92-18.08-30.5-48.91-51.23-82.94-67.37h0c-72.12-34.2-193.89-71.18-364.42-53.13-251.44,26.62-421.08,94.27-467.09,114.37-6.12,2.67-12.62,3.93-19.31,3.76-6.07-.16-13.39-.7-21.14-1.26-35.97-2.63-85.24-6.24-131.67,15.64-29.65,13.97-49.34,40.24-50.18,66.92-.43,13.77,3.99,39.69,38.39,58.61,28.75,15.81,48.75,16.53,66.39,17.16,14.87.53,27.71.99,48.7,10.54,6.23,2.83,14.79,7.08,25.63,12.47,74.07,36.79,247.54,122.96,438.4,127.16,19.43.43,38.74.64,57.88.64,90.97,0,177.43-4.78,248.07-13.84,88.64-11.38,151.62-29.03,187.71-52.57h.12c39.05,35.44,144.62,135.13,183.87,211.6,3.99,7.77,11.87,12.23,20.04,12.23,3.46,0,6.97-.8,10.26-2.49,11.05-5.67,15.42-19.24,9.74-30.29-23.76-46.29-67.78-98.54-109.36-142.31-.07-.08,0-.2.1-.18,1.97.44,3.96.88,6,1.3,41.66,8.66,95.95,13.04,161.51,13.04,4.17,0,8.39-.02,12.64-.05,125.91-1.05,267.48-17.68,342.26-33.57,41.14-8.74,70.98-25.91,91.11-52.43l.09-.04,2.06-.02c.06,0,6.46.57,11.61,5.8,6.31,6.42,9.44,18.3,9.03,34.35-.69,27.56-9.73,39.69-29.53,66.29-7.41,9.95-15.81,21.23-25.23,35.36-30.49,45.73-26.93,125.27-23.49,202.19,1.11,24.7,2.15,48.03,2.15,70.2,0,79.45-27.61,193.78-159.12,287.22-59.08,41.98-163.17,75.54-309.38,99.75-125.55,20.79-279.66,34.28-458.03,40.1-78.99,2.58-154.96,3.86-227.93,3.86-241.81,0-450.1-14.12-621.15-42.21-236.41-38.81-501.2-118.36-672.57-414.05-117.88-203.39-92.71-416.5-76.06-557.51,8.61-72.91,14.83-125.6-.38-157.4-20.27-42.39-69.44-165.43-110.43-327.7-7.13-28.24-13.69-56.33-19.72-84.26-.01-.05.05-.08.09-.05,3.43,2.72,6.84,5.44,10.22,8.19,8.51,6.91,21.49,8.95,29.7,0,7.04-7.67,9.11-22.3,0-29.7-14.08-11.44-28.56-22.56-42.28-34.47h0c-2.18-1.56-4.32-3.18-6.4-4.89-15.18-12.45-22.36-30.24-23.39-49.5-.5-9.37-.53-19.05,1.12-28.36h0c.05-.63.12-1.26.2-1.88.52-3.88,2.54-14.93,23.56-34.71,3.61-3.74,7.25-7.45,10.82-11.22,17.12-18.04,32.84-37.71,39.99-61.93,3.11-10.53-3.75-23.35-14.67-25.83-11.27-2.57-22.5,3.39-25.83,14.67-.47,1.59-.91,3.7-1.59,5.51.07-.2-.08.07-.76,1.45-.58,1.19-1.14,2.39-1.75,3.57-2.32,4.49-5,8.79-7.91,12.92-.75,1.07-1.54,2.1-2.3,3.16-.08.1-.16.19-.25.3-1.55,1.88-3.1,3.76-4.7,5.61-3.57,4.12-7.29,8.11-11.05,12.06-2.51,2.63-5.05,5.26-7.57,7.9l-.09-.03c-12.61-105.89-16.63-208.76-11.95-307.79,10.45-221.14,187.91-393.4,334.94-498.96,136.78-98.2,273.49-158.61,313.43-175.31h.1c17.04,12.88,53.59,39.77,101.32,70.84,88.26,57.46,168.54,99.44,238.62,124.79,74.34,26.89,142.1,59.25,195.96,93.58,45.19,28.81,80.36,58.86,99.04,84.61,86.15,118.8,139.58,216.74,139.71,337.55.01,12.15,9.5,22.49,21.64,22.94,12.82.48,23.36-9.77,23.36-22.48,0-64.28-13.91-126.6-42.53-190.52-23.03-51.44-54.66-103.45-105.75-173.91-22.23-30.66-60.71-63.91-111.28-96.14-57.42-36.6-126.34-69.56-204.84-97.95-139.93-50.61-292.8-162.55-329.65-190.39l-.04-.09c1.4-10.8,9.09-32.41,45.31-53.38,44.02-25.48,115.04,7.46,140.42,23.27h0c6.84,5.83,39.37,33.31,78.46,62.62,60.44,45.33,103.52,70.59,131.71,77.22,89.01,20.94,206.61,25.37,340.09,12.79,83.39-7.85,163.56,4.27,216.13,15.83,57.03,12.54,94.88,27.16,95.75,27.49,2.7,1.06,5.48,1.56,8.21,1.56,8.98,0,17.47-5.42,20.95-14.29,4.54-11.57-1.16-24.62-12.73-29.16-1.64-.64-40.95-15.94-101.56-29.34-55.93-12.36-141.41-25.33-230.97-16.89-162.56,15.32-266.76,2.04-325.56-11.79-33.31-7.84-102.86-58.87-151.91-97.91l.05-.18c70.95-8.03,206.86-22.12,363.21-31.71,301.61-18.5,542-11.95,695.15,18.93,191.65,38.65,339.42,118.97,429.63,179.55,71.15,47.78,118.69,91.13,139.63,111.53l.02.11c-11.81,24.8-10.01,53.41-7.73,68.84.95,8.81,1.89,17.59,2.83,26.4,1.67,24.9,4.42,71.18,5.58,121.77.4,17.46-5.28,28.95-16.88,34.16-22.92,10.28-71.9-1.34-125.28-51.13-83.45-77.83-92.89-242.93-92.97-244.59-.63-12.4-11.19-21.96-23.6-21.33-12.41.62-21.97,11.19-21.34,23.6.38,7.51,10.35,184.88,107.22,275.23,29.8,27.79,61.64,48.01,92.07,58.46,15.99,5.49,31.27,8.24,45.42,8.24s25.85-2.48,36.89-7.43c28.44-12.75,44.27-40.54,43.45-76.25-1.75-76.15-6.02-129.1-7.09-143.52-.58-7.89-3.38-19.38-2.7-31.54.5-8.9,3.29-17.52,7.86-25.17l4.28-7.16s.05-.07.07-.11c.01-.02.03-.04.04-.06,6.06-9.9,19.08-23.91,27.99-24.71,3.42-.31,7.09,2.41,11.91,7.15,28.82,28.37,32.6,124.66,29.9,168.72-.19.97-.89,24.81-.89,24.81-1.54,44.31-8.23,150.18-37.22,211.57-35.48,75.13-59.48,141.55,6.41,193.52,27.22,21.46,42.99,32.31,64.51,39.82,20.99,7.33,45.31,10.54,89.46,16.37,5.71.75,11.83,1.56,18.32,2.43h0c2.47.03,4.93,0,7.42-.1,15.28-.65,30.99,8.9,30.99,25.77,0,12.72-9.49,21.46-20.7,24.99Zm-754.25,977.74c10.87-26.41,14.66-56.57,10.35-87.44-.47-3.39-1.05-6.76-1.72-10.13,0,0,0,0,0,0,17.32-3.53,32.86-15.11,40.8-31.1,4.96-9.99,7.52-20.37,8.06-31.5.15-3.07,0-6.11-.27-9.13,0,0,0,0,0,0,27.82-21.01,64.18-38.45,107.28-51.27,55.16-16.4,120.05-24.97,188.5-24.97,4.76,0,9.55.04,14.35.12,190.27,3.31,292.36,86.07,294.88,166.11,1.29,40.96-5.28,70.8-20.09,91.24-13.5,18.63-34.38,30.41-65.71,37.07-72.57,15.42-210.35,31.57-333.28,32.59-68.05.57-123.44-3.49-164.62-12.05-56.77-11.8-68.32-28.42-70.65-35.01-3.76-10.63-6.33-22.33-7.88-34.52v-.03Zm-67.69,19.87c-49.93,43.84-241.37,69.82-476.37,64.66-180.82-3.97-347.98-87.01-419.37-122.47-11.22-5.58-20.09-9.98-27.03-13.13-29.1-13.23-49.4-13.96-65.71-14.54-15.64-.56-26.95-.97-46.32-11.62-7.02-3.86-15.34-10.08-15.1-17.78.29-9.33,10.77-21.21,24.38-27.62,22.43-10.57,46.83-13.33,69.98-13.33,13.74,0,27.04.97,39.22,1.87,8.29.61,16.12,1.18,23.23,1.37,13.16.34,26.48-2.25,38.52-7.51,44.51-19.45,208.77-84.91,453.81-110.85,160.13-16.95,273.5,17.31,340.4,49.04,44.68,21.19,76.96,57.93,89.45,100.66,0,0,0,.02,0,.03,11.19,86.64-20.24,113.44-29.12,121.24Z"/>
    <path d="m1277.02,1394.4c-64.22-9.95-128.85-1.73-188.58,23.87-54.35,23.29-100.67,62.11-135.6,109.55-19.12,25.96-33.92,54.77-44.81,85.09-3.72,10.35,4.19,23.45,14.67,25.83,11.8,2.69,21.85-3.58,25.83-14.67,1.05-2.93,2.14-5.85,3.27-8.75.57-1.45,1.15-2.89,1.74-4.34,0,0,0,0,0,0,.23-.54.52-1.23.61-1.44,2.59-5.94,5.37-11.81,8.34-17.58,6.04-11.77,12.84-23.16,20.31-34.08,1.76-2.57,3.56-5.11,5.39-7.63.92-1.26,1.84-2.51,2.78-3.75.1-.13.23-.35.39-.59.14-.15.33-.38.6-.71,4.04-5.08,8.18-10.07,12.49-14.92,8.8-9.88,18.22-19.22,28.18-27.92,2.34-2.05,4.72-4.06,7.12-6.04,1.2-.99,2.41-1.97,3.63-2.94.5-.4,1.01-.79,1.51-1.19,5.13-3.81,10.29-7.57,15.61-11.12,11.71-7.79,23.96-14.77,36.63-20.87,3.09-1.49,6.21-2.93,9.36-4.31.3-.13.6-.28.91-.43.11-.04.23-.09.39-.16,1.86-.75,3.71-1.52,5.57-2.25,6.66-2.61,13.41-5,20.24-7.15,13.92-4.4,28.15-7.83,42.54-10.27,1.98-.34,3.95-.65,5.94-.95.35-.05.74-.14,1.13-.21.22-.02.53-.05.95-.1,3.98-.48,7.96-.92,11.96-1.27,7.98-.7,15.99-1.09,24.01-1.18,8.3-.09,16.6.15,24.88.72,4,.28,7.99.63,11.97,1.07,1.93.21,4,.27,5.9.69-.54-.09-3.56-.52-1.26-.16,1.41.22,2.83.42,4.25.64,10.81,1.68,23.12-2.74,25.83-14.67,2.29-10.03-3.06-24.03-14.67-25.83Z"/>
    <path d="m290.46,1287.57c-13.23-17.7-26.76-35.79-36.93-55.46-.02-.05-.03-.09-.05-.15-.36-1.08-.75-2.16-1.06-3.26-.35-1.2-.56-2.43-.86-3.63.03-.53-.21-1.78-.25-2.81.04-.16.09-.33.14-.55.3-1.27.59-2.53.98-3.77.03-.1.1-.31.18-.57.32-.71.87-2.02,1.04-2.35.49-.93,1.02-1.85,1.56-2.76,1.23-2.06,2.65-3.97,4-5.95.07-.09.15-.18.23-.27.7-.83,1.38-1.67,2.08-2.49,1.74-2.05,3.54-4.05,5.33-6.05,7.34-8.17,8.66-21.75,0-29.7-8.02-7.36-21.86-8.72-29.7,0-8.09,9-16.46,18.45-21.47,29.57-6.34,14.07-8.1,29.22-3.26,44.14,4.08,12.58,11.2,23.61,18.51,34.49,7.47,11.12,15.24,22.04,23.26,32.77,3.4,4.55,6.86,8.08,12.55,9.65,5.03,1.38,11.72.76,16.18-2.12,8.68-5.59,14.57-19.32,7.53-28.73Z"/>
  </g>
</svg>